<svg width="99" height="24" viewBox="0 0 99 24" fill="none" xmlns="http://www.w3.org/2000/svg">
<path d="M5.056 18.112C4.23467 18.112 3.49867 17.9787 2.848 17.712C2.19733 17.4453 1.67467 17.0507 1.28 16.528C0.896 16.0053 0.693333 15.376 0.672 14.64H3.584C3.62667 15.056 3.77067 15.376 4.016 15.6C4.26133 15.8133 4.58133 15.92 4.976 15.92C5.38133 15.92 5.70133 15.8293 5.936 15.648C6.17067 15.456 6.288 15.1947 6.288 14.864C6.288 14.5867 6.192 14.3573 6 14.176C5.81867 13.9947 5.58933 13.8453 5.312 13.728C5.04533 13.6107 4.66133 13.4773 4.16 13.328C3.43467 13.104 2.84267 12.88 2.384 12.656C1.92533 12.432 1.53067 12.1013 1.2 11.664C0.869333 11.2267 0.704 10.656 0.704 9.952C0.704 8.90667 1.08267 8.09067 1.84 7.504C2.59733 6.90667 3.584 6.608 4.8 6.608C6.03733 6.608 7.03467 6.90667 7.792 7.504C8.54933 8.09067 8.95467 8.912 9.008 9.968H6.048C6.02667 9.60533 5.89333 9.32267 5.648 9.12C5.40267 8.90667 5.088 8.8 4.704 8.8C4.37333 8.8 4.10667 8.89067 3.904 9.072C3.70133 9.24267 3.6 9.49333 3.6 9.824C3.6 10.1867 3.77067 10.4693 4.112 10.672C4.45333 10.8747 4.98667 11.0933 5.712 11.328C6.43733 11.5733 7.024 11.808 7.472 12.032C7.93067 12.256 8.32533 12.5813 8.656 13.008C8.98667 13.4347 9.152 13.984 9.152 14.656C9.152 15.296 8.98667 15.8773 8.656 16.4C8.336 16.9227 7.86667 17.3387 7.248 17.648C6.62933 17.9573 5.89867 18.112 5.056 18.112ZM16.1317 8.96V11.232H19.7957V13.344H16.1317V15.808H20.2757V18H13.3957V6.768H20.2757V8.96H16.1317ZM30.34 18L28.004 13.76H27.348V18H24.612V6.768H29.204C30.0893 6.768 30.8413 6.92267 31.46 7.232C32.0893 7.54133 32.5587 7.968 32.868 8.512C33.1773 9.04533 33.332 9.64267 33.332 10.304C33.332 11.0507 33.1187 11.7173 32.692 12.304C32.276 12.8907 31.6573 13.3067 30.836 13.552L33.428 18H30.34ZM27.348 11.824H29.044C29.5453 11.824 29.9187 11.7013 30.164 11.456C30.42 11.2107 30.548 10.864 30.548 10.416C30.548 9.98933 30.42 9.65333 30.164 9.408C29.9187 9.16267 29.5453 9.04 29.044 9.04H27.348V11.824ZM40.3455 8.96V11.232H44.0095V13.344H40.3455V15.808H44.4895V18H37.6095V6.768H44.4895V8.96H40.3455ZM58.8737 18H56.1377L51.5617 11.072V18H48.8257V6.768H51.5617L56.1377 13.728V6.768H58.8737V18ZM66.153 6.768V18H63.417V6.768H66.153ZM78.7758 6.768V8.96H75.7998V18H73.0638V8.96H70.0878V6.768H78.7758ZM92.3409 6.768L88.4529 14.288V18H85.7169V14.288L81.8289 6.768H84.9329L87.1089 11.472L89.2689 6.768H92.3409Z" fill="black"/>
<path d="M97.2832 18.128C96.8032 18.128 96.4086 17.9893 96.0992 17.712C95.8006 17.424 95.6512 17.072 95.6512 16.656C95.6512 16.2293 95.8006 15.872 96.0992 15.584C96.4086 15.296 96.8032 15.152 97.2832 15.152C97.7526 15.152 98.1366 15.296 98.4352 15.584C98.7446 15.872 98.8992 16.2293 98.8992 16.656C98.8992 17.072 98.7446 17.424 98.4352 17.712C98.1366 17.9893 97.7526 18.128 97.2832 18.128Z" fill="#6FA0A6"/>
</svg>
